- 
http://www.Speed.Cd      fast  and The Hottest Private Tracker on the net

   signup is open now

Please Seed back to make the speed Faster!!!

------------------nfo--------------------------
-The Twilight Saga Breaking Dawn Part 1 2011 TS READNFO XviD - MiSTERE

 
http://www.imdb.com/title/tt1324999/


Video
ID                               : 0
Format                           : MPEG-4 Visual
Format profile                   : Advanced Simple@L5
Format settings, BVOP            : 2
Format settings, QPel            : No
Format settings, GMC             : No warppoints
Format settings, Matrix          : Default (H.263)
Muxing mode                      : Packed bitstream
Codec ID                         : XVID
Codec ID/Hint                    : XviD
Duration                         : 1h 46mn
Bit rate                         : 1 746 Kbps
Width                            : 720 pixels
Height                           : 304 pixels
Display aspect ratio             : 2.35:1
Frame rate                       : 24.000 fps
Color space                      : YUV
Chroma subsampling               : 4:2:0
Bit depth                        : 8 bits
Scan type                        : Progressive
Compression mode                 : Lossy
Bits/(Pixel*Frame)               : 0.332
Stream size                      : 1.30 GiB (93%)
Writing library                  : XviD 64

Audio
ID                               : 1
Format                           : MPEG Audio
Format version                   : Version 1
Format profile                   : Layer 3
Mode                             : Joint stereo
Mode extension                   : MS Stereo
Codec ID                         : 55
Codec ID/Hint                    : MP3
Duration                         : 1h 46mn
Bit rate mode                    : Constant
Bit rate                         : 128 Kbps
Channel(s)                       : 2 channels
Sampling rate                    : 44.1 KHz
Compression mode                 : Lossy
Stream size                      : 97.9 MiB (7%)
Alignment                        : Split accross interleaves
Interleave, duration             : 42 ms (1.00 video frame)


Cropped Resized Sharpened and Tweaked RGB
42 seconds OF CAM audio in 2 areas
ENGLISH subs hardcoded when needed
after credit scene included, after credits


[IMG]http://i.imgur.com/4CFEs.png[/IMG]
[IMG]http://i.imgur.com/Vds0W.png[/IMG]
[IMG]http://i.imgur.com/Nda7x.png[/IMG]
[IMG]http://i.imgur.com/twPX4.png[/IMG]
[IMG]http://i.imgur.com/meDYV.png[/IMG]
[IMG]http://i.imgur.com/lQvDS.png[/IMG]
[IMG]http://i.imgur.com/03hz4.png[/IMG]